<svg width="12" height="12" viewBox="0 0 12 12" fill="none" xmlns="http://www.w3.org/2000/svg">
<path d="M1.34119 0.574666C1.12965 0.363132 0.786688 0.363132 0.575154 0.574666C0.36362 0.7862 0.36362 1.12916 0.575154 1.3407L5.234 5.99954L0.658874 10.5747C0.447339 10.7862 0.44734 11.1292 0.658874 11.3407C0.870408 11.5522 1.21337 11.5522 1.42491 11.3407L6.00003 6.76557L10.5752 11.3407C10.7867 11.5522 11.1297 11.5522 11.3412 11.3407C11.5527 11.1292 11.5527 10.7862 11.3412 10.5747L6.76606 5.99954L11.4249 1.3407C11.6364 1.12916 11.6364 0.7862 11.4249 0.574666C11.2134 0.363132 10.8704 0.363132 10.6589 0.574666L6.00003 5.23351L1.34119 0.574666Z" fill="#7E7E7E"/>
</svg>
